<svg width="682.667" height="682" xmlns="http://www.w3.org/2000/svg">

 <g>
  <title>Layer 1</title>
  <path stroke="null" id="svg_1" data-original="#000000" fill="#6d6d6d" d="m657.38034,169.9469c-7.61699,-28.94767 -29.94433,-51.76648 -58.25786,-59.56138c-51.72532,-14.4675 -258.63072,-14.4675 -258.63072,-14.4675s-206.89714,0 -258.62245,13.91955c-27.76923,7.78646 -50.63983,31.16694 -58.25682,60.10934c-13.61247,52.87189 -13.61247,162.52316 -13.61247,162.52316s0,110.20239 13.61247,162.52105c7.62422,28.94345 29.9433,51.76331 58.26095,59.55716c52.26548,14.47172 258.62659,14.47172 258.62659,14.47172s206.89714,0 258.62245,-13.91955c28.31765,-7.79068 50.64086,-30.60949 58.26509,-59.55294c13.60834,-52.87612 13.60834,-162.5221 13.60834,-162.5221s0.54429,-110.20661 -13.61557,-163.07745l0,-0.00106zm-382.76342,263.82101l0,-202.59887l172.05211,101.2989l-172.05211,101.29996zm0,0" xmlns="http://www.w3.org/2000/svg"/>
 </g>
</svg>